Coordinates
version=1
nRows=16
nColumns=22
inDegrees=yes

Units are S.I. units (second, meters, Newtons, ...)
If the header above contains a line with 'inDegrees', this indicates whether rotational values are in degrees (yes) or radians (no).

endheader
time	pelvis_tilt	pelvis_list	pelvis_rotation	pelvis_tx	pelvis_ty	pelvis_tz	hip_flexion_r	hip_adduction_r	hip_rotation_r	knee_angle_r	ankle_angle_r	subtalar_angle_r	hip_flexion_l	hip_adduction_l	hip_rotation_l	knee_angle_l	ankle_angle_l	subtalar_angle_l	lumbar_extension	lumbar_bending	lumbar_rotation
      2.13000000	      3.57035747	     -3.91545302	     40.33980500	      0.52288880	      1.00792892	      0.59874959	      4.15735176	      6.75490866	     -4.15091188	    -20.21917562	     13.99551730	     -1.00009098	     20.56791594	     -7.28420935	     -2.19455815	    -52.41303150	      8.31618892	      2.07172292	    -15.04308944	      5.81039412	      6.75791737
      2.14000000	      3.58893785	     -3.83450903	     40.98896793	      0.52552740	      1.00804257	      0.59585889	      3.65639606	      6.70701001	     -4.67496699	    -19.86325113	     14.09303345	     -0.94128690	     21.12291090	     -7.20521491	     -2.65312892	    -51.21525527	      8.51486473	      2.01211110	    -15.18725903	      5.80659343	      6.89977392
      2.15000000	      3.62747346	     -3.75852138	     41.61056176	      0.52819056	      1.00812937	      0.59294544	      3.14002489	      6.68695258	     -5.17582202	    -19.50741456	     14.17996918	     -0.88086454	     21.62505607	     -7.18533595	     -3.22867557	    -49.95654246	      8.72168094	      1.86531550	    -15.34678931	      5.81055097	      7.05490061
      2.16000000	      3.66267442	     -3.70209846	     42.20160173	      0.53087002	      1.00813987	      0.59000657	      2.63830195	      6.69052128	     -5.63337814	    -19.15269758	     14.26589313	     -0.83384768	     22.10524689	     -7.20862904	     -3.90450184	    -48.64647787	      8.93737463	      1.66236064	    -15.48827019	      5.81675489	      7.23254790
      2.17000000	      3.71235342	     -3.64743187	     42.75701888	      0.53356850	      1.00811945	      0.58702671	      2.12523725	      6.71261052	     -6.05977360	    -18.80233661	     14.34367550	     -0.79064632	     22.53452226	     -7.27476504	     -4.70237858	    -47.28977247	      9.09859966	      1.37966526	    -15.64152637	      5.82508912	      7.41891288
      2.18000000	      3.76642353	     -3.59588640	     43.28330527	      0.53626980	      1.00804995	      0.58398628	      1.60919014	      6.74548970	     -6.45053684	    -18.45573328	     14.42399203	     -0.75348274	     22.92230624	     -7.36206009	     -5.59598390	    -45.88987659	      9.19537774	      1.04384519	    -15.79517375	      5.83290742	      7.60365459
      2.19000000	      3.82155509	     -3.55356647	     43.79021134	      0.53895148	      1.00792092	      0.58085387	      1.09310894	      6.78958173	     -6.81257935	    -18.10565617	     14.51032431	     -0.72032631	     23.27848834	     -7.45466807	     -6.55389712	    -44.45242850	      9.21954529	      0.69379500	    -15.93822539	      5.85036045	      7.77366477
      2.20000000	      3.85909197	     -3.51301243	     44.26886379	      0.54160716	      1.00773238	      0.57761939	      0.59347586	      6.81834421	     -7.16997818	    -17.76532961	     14.59343038	     -0.69017197	     23.59889780	     -7.51656197	     -7.54948655	    -42.96253442	      9.18857276	      0.41034653	    -16.06074008	      5.85353847	      7.97191169
      2.21000000	      3.90801046	     -3.46959856	     44.73867883	      0.54425749	      1.00751369	      0.57428723	      0.06972961	      6.85645186	     -7.51331569	    -17.40991071	     14.68618118	     -0.64828784	     23.86744155	     -7.56327871	     -8.56419257	    -41.43360699	      9.08237838	      0.15233527	    -16.18799627	      5.85869912	      8.14292214
      2.22000000	      3.97340570	     -3.42601174	     45.20519653	      0.54688267	      1.00726476	      0.57082552	     -0.48261386	      6.90871114	     -7.84683426	    -17.03265076	     14.80088161	     -0.57941738	     24.08233035	     -7.58927442	     -9.57186078	    -39.86927554	      8.94963529	     -0.06422391	    -16.32059748	      5.88405719	      8.27347245
      2.23000000	      4.00753474	     -3.39625144	     45.65590411	      0.54946433	      1.00693434	      0.56726821	     -0.99652325	      6.94114072	     -8.20353869	    -16.66765199	     14.90248626	     -0.49922040	     24.28726844	     -7.56112001	    -10.54736863	    -38.26435359	      8.73690829	     -0.14865771	    -16.41134628	      5.89261077	      8.42921186
      2.24000000	      4.08608190	     -3.35320277	     46.11142021	      0.55205282	      1.00660661	      0.56358842	     -1.58099328	      7.00356458	     -8.55001803	    -16.26348555	     15.02923051	     -0.37288606	     24.41463457	     -7.52907457	    -11.50679945	    -36.64701077	      8.55405498	     -0.16900685	    -16.53893121	      5.92729578	      8.52895418
      2.25000000	      4.14785319	     -3.32743175	     46.56130885	      0.55461298	      1.00619716	      0.55981532	     -2.14362686	      7.06563227	     -8.90804067	    -15.85649617	     15.14388891	     -0.24179993	     24.53581335	     -7.46268462	    -12.42596031	    -35.02148816	      8.33800472	     -0.08960604	    -16.63195132	      5.96091622	      8.62468522
      2.26000000	      4.20071976	     -3.31615089	     47.00619938	      0.55716339	      1.00571743	      0.55595255	     -2.69502432	      7.13320199	     -9.27504664	    -15.44223415	     15.23363635	     -0.11852083	     24.64571166	     -7.37231344	    -13.30637609	    -33.40370835	      8.10643117	      0.05207002	    -16.69820825	      5.99474595	      8.71697890
      2.27000000	      4.28553274	     -3.30044763	     47.44772893	      0.55975116	      1.00521088	      0.55198760	     -3.29309425	      7.22976155	     -9.63398216	    -15.00160643	     15.32191439	      0.02148656	     24.70841099	     -7.29782030	    -14.19377854	    -31.83075519	      7.94170742	      0.25450914	    -16.78327902	      6.04700023	      8.77064426
      2.28000000	      4.38584744	     -3.29338447	     47.87858713	      0.56239916	      1.00464602	      0.54793350	     -3.90773226	      7.35194843	     -9.98057361	    -14.54913190	     15.40223567	      0.16485536	     24.74878609	     -7.24221203	    -15.08241166	    -30.32184315	      7.83261735	      0.49034166	    -16.85992852	      6.10696540	      8.81344837
